<svg width="39" height="39" viewBox="0 0 39 39" fill="none" xmlns="http://www.w3.org/2000/svg">
<g filter="url(#filter0_d_31_1097)">
<rect x="2" y="2" width="34.148" height="34.148" rx="4" fill="#0E0E0E"/>
<rect x="2.25" y="2.25" width="33.648" height="33.648" rx="3.75" stroke="#353535" stroke-width="0.5"/>
</g>
<path d="M9.4686 9.47V28.6782H28.6768" stroke="#426BFF" stroke-width="0.5" stroke-linecap="round"/>
<circle cx="14.2707" cy="23.8762" r="0.533562" fill="#426BFF"/>
<circle cx="18.5391" cy="18.5406" r="0.533562" fill="#426BFF"/>
<circle cx="18.5391" cy="26.0104" r="0.533562" fill="#426BFF"/>
<circle cx="12.1364" cy="13.2049" r="0.533562" fill="#426BFF"/>
<circle cx="22.2741" cy="22.2755" r="1.06712" fill="#426BFF"/>
<circle cx="26.009" cy="24.9433" r="0.533562" fill="#426BFF"/>
<circle cx="17.472" cy="14.2721" r="0.533562" fill="#426BFF"/>
<circle cx="24.4083" cy="14.8056" r="1.06712" fill="#426BFF"/>
<circle cx="12.67" cy="20.1413" r="1.06712" fill="#426BFF"/>
<g filter="url(#filter1_f_31_1097)">
<path d="M9.46857 9.47V28.6782H28.6768" stroke="#426BFF" stroke-width="0.5" stroke-linecap="round"/>
<circle cx="14.2706" cy="23.8762" r="0.533562" fill="#426BFF"/>
<circle cx="18.5391" cy="18.5406" r="0.533562" fill="#426BFF"/>
<circle cx="18.5391" cy="26.0104" r="0.533562" fill="#426BFF"/>
<circle cx="12.1364" cy="13.2049" r="0.533562" fill="#426BFF"/>
<circle cx="22.2741" cy="22.2755" r="1.06712" fill="#426BFF"/>
<circle cx="26.009" cy="24.9433" r="0.533562" fill="#426BFF"/>
<circle cx="17.472" cy="14.2721" r="0.533562" fill="#426BFF"/>
<circle cx="24.4083" cy="14.8056" r="1.06712" fill="#426BFF"/>
<circle cx="12.6699" cy="20.1413" r="1.06712" fill="#426BFF"/>
</g>
<defs>
<filter id="filter0_d_31_1097" x="0" y="0" width="38.1479" height="38.1479" filterUnits="userSpaceOnUse" color-interpolation-filters="sRGB">
<feFlood flood-opacity="0" result="BackgroundImageFix"/>
<feColorMatrix in="SourceAlpha" type="matrix" values="0 0 0 0 0 0 0 0 0 0 0 0 0 0 0 0 0 0 127 0" result="hardAlpha"/>
<feOffset/>
<feGaussianBlur stdDeviation="1"/>
<feComposite in2="hardAlpha" operator="out"/>
<feColorMatrix type="matrix" values="0 0 0 0 0 0 0 0 0 0 0 0 0 0 0 0 0 0 0.25 0"/>
<feBlend mode="normal" in2="BackgroundImageFix" result="effect1_dropShadow_31_1097"/>
<feBlend mode="normal" in="SourceGraphic" in2="effect1_dropShadow_31_1097" result="shape"/>
</filter>
<filter id="filter1_f_31_1097" x="5.21857" y="5.22" width="27.7082" height="27.7082" filterUnits="userSpaceOnUse" color-interpolation-filters="sRGB">
<feFlood flood-opacity="0" result="BackgroundImageFix"/>
<feBlend mode="normal" in="SourceGraphic" in2="BackgroundImageFix" result="shape"/>
<feGaussianBlur stdDeviation="2" result="effect1_foregroundBlur_31_1097"/>
</filter>
</defs>
</svg>
