<svg width="39" height="39" viewBox="0 0 39 39" fill="none" xmlns="http://www.w3.org/2000/svg">
<g filter="url(#filter0_d_31_1110)">
<rect x="2.33594" y="2" width="34.148" height="34.148" rx="4" fill="#0E0E0E"/>
<rect x="2.58594" y="2.25" width="33.648" height="33.648" rx="3.75" stroke="#353535" stroke-width="0.5"/>
</g>
<path d="M11.4142 27.611L11.4142 28.6781" stroke="#426BFF" stroke-width="0.4" stroke-linecap="round"/>
<path d="M11.9477 28.1446H10.8806" stroke="#426BFF" stroke-width="0.4" stroke-linecap="round"/>
<path d="M12.4781 25.4768L12.4781 26.5439" stroke="#426BFF" stroke-width="0.4" stroke-linecap="round"/>
<path d="M13.0117 26.0103H11.9445" stroke="#426BFF" stroke-width="0.4" stroke-linecap="round"/>
<path d="M13.542 23.3426L13.542 24.4097" stroke="#426BFF" stroke-width="0.4" stroke-linecap="round"/>
<path d="M14.0756 23.8762H13.0085" stroke="#426BFF" stroke-width="0.4" stroke-linecap="round"/>
<path d="M14.6138 21.2079L14.6138 22.275" stroke="#426BFF" stroke-width="0.4" stroke-linecap="round"/>
<path d="M15.1473 21.7415H14.0802" stroke="#426BFF" stroke-width="0.4" stroke-linecap="round"/>
<path d="M17.8134 16.9394L17.8134 18.0065" stroke="#426BFF" stroke-width="0.4" stroke-linecap="round"/>
<path d="M18.3469 17.473H17.2798" stroke="#426BFF" stroke-width="0.4" stroke-linecap="round"/>
<path d="M19.9491 18.0068L19.9491 19.0739" stroke="#426BFF" stroke-width="0.4" stroke-linecap="round"/>
<path d="M20.4826 18.5404H19.4155" stroke="#426BFF" stroke-width="0.4" stroke-linecap="round"/>
<path d="M21.013 20.141L21.013 21.2081" stroke="#426BFF" stroke-width="0.4" stroke-linecap="round"/>
<path d="M21.5466 20.6746H20.4794" stroke="#426BFF" stroke-width="0.4" stroke-linecap="round"/>
<path d="M22.0847 22.2752L22.0847 23.3424" stroke="#426BFF" stroke-width="0.4" stroke-linecap="round"/>
<path d="M22.6183 22.8088H21.5512" stroke="#426BFF" stroke-width="0.4" stroke-linecap="round"/>
<path d="M26.3483 24.4095L26.3483 25.4766" stroke="#426BFF" stroke-width="0.4" stroke-linecap="round"/>
<path d="M26.8819 24.943H25.8147" stroke="#426BFF" stroke-width="0.4" stroke-linecap="round"/>
<path d="M27.42 22.2752L27.42 23.3424" stroke="#426BFF" stroke-width="0.4" stroke-linecap="round"/>
<path d="M27.9536 22.8088H26.8865" stroke="#426BFF" stroke-width="0.4" stroke-linecap="round"/>
<path d="M27.42 20.141L27.42 21.2081" stroke="#426BFF" stroke-width="0.4" stroke-linecap="round"/>
<path d="M27.9536 20.6746H26.8865" stroke="#426BFF" stroke-width="0.4" stroke-linecap="round"/>
<path d="M28.484 18.0068L28.484 19.0739" stroke="#426BFF" stroke-width="0.4" stroke-linecap="round"/>
<path d="M29.0175 18.5404H27.9504" stroke="#426BFF" stroke-width="0.4" stroke-linecap="round"/>
<path d="M8.38666 28.4962C8.28628 28.693 8.36444 28.9339 8.56123 29.0343C8.75802 29.1347 8.99892 29.0565 9.0993 28.8597L8.38666 28.4962ZM30.0855 10.5369L26.4285 13.3582L30.7004 15.1146L30.0855 10.5369ZM17.2039 18.6462L16.871 18.868L17.2039 18.6462ZM9.0993 28.8597L14.1142 19.0281L13.4015 18.6646L8.38666 28.4962L9.0993 28.8597ZM16.871 18.868L20.6906 24.6007L21.3564 24.1571L17.5367 18.4244L16.871 18.868ZM24.9076 24.1826L29.0865 14.0185L28.3466 13.7143L24.1677 23.8784L24.9076 24.1826ZM20.6906 24.6007C21.7565 26.2004 24.1767 25.9605 24.9076 24.1826L24.1677 23.8784C23.6804 25.0636 22.067 25.2236 21.3564 24.1571L20.6906 24.6007ZM14.1142 19.0281C14.6699 17.9387 16.1928 17.8502 16.871 18.868L17.5367 18.4244C16.5195 16.8977 14.2351 17.0304 13.4015 18.6646L14.1142 19.0281Z" fill="#426BFF"/>
<g filter="url(#filter1_f_31_1110)">
<path d="M11.4142 27.611L11.4142 28.6781" stroke="#426BFF" stroke-width="0.4" stroke-linecap="round"/>
<path d="M11.9477 28.1446H10.8806" stroke="#426BFF" stroke-width="0.4" stroke-linecap="round"/>
<path d="M12.4781 25.4768L12.4781 26.5439" stroke="#426BFF" stroke-width="0.4" stroke-linecap="round"/>
<path d="M13.0117 26.0103H11.9445" stroke="#426BFF" stroke-width="0.4" stroke-linecap="round"/>
<path d="M13.542 23.3426L13.542 24.4097" stroke="#426BFF" stroke-width="0.4" stroke-linecap="round"/>
<path d="M14.0756 23.8762H13.0085" stroke="#426BFF" stroke-width="0.4" stroke-linecap="round"/>
<path d="M14.6138 21.2079L14.6138 22.275" stroke="#426BFF" stroke-width="0.4" stroke-linecap="round"/>
<path d="M15.1473 21.7415H14.0802" stroke="#426BFF" stroke-width="0.4" stroke-linecap="round"/>
<path d="M17.8134 16.9394L17.8134 18.0065" stroke="#426BFF" stroke-width="0.4" stroke-linecap="round"/>
<path d="M18.3469 17.473H17.2798" stroke="#426BFF" stroke-width="0.4" stroke-linecap="round"/>
<path d="M19.9491 18.0068L19.9491 19.0739" stroke="#426BFF" stroke-width="0.4" stroke-linecap="round"/>
<path d="M20.4826 18.5404H19.4155" stroke="#426BFF" stroke-width="0.4" stroke-linecap="round"/>
<path d="M21.013 20.141L21.013 21.2081" stroke="#426BFF" stroke-width="0.4" stroke-linecap="round"/>
<path d="M21.5466 20.6746H20.4794" stroke="#426BFF" stroke-width="0.4" stroke-linecap="round"/>
<path d="M22.0847 22.2752L22.0847 23.3424" stroke="#426BFF" stroke-width="0.4" stroke-linecap="round"/>
<path d="M22.6183 22.8088H21.5512" stroke="#426BFF" stroke-width="0.4" stroke-linecap="round"/>
<path d="M26.3483 24.4095L26.3483 25.4766" stroke="#426BFF" stroke-width="0.4" stroke-linecap="round"/>
<path d="M26.8819 24.943H25.8147" stroke="#426BFF" stroke-width="0.4" stroke-linecap="round"/>
<path d="M27.42 22.2752L27.42 23.3424" stroke="#426BFF" stroke-width="0.4" stroke-linecap="round"/>
<path d="M27.9536 22.8088H26.8865" stroke="#426BFF" stroke-width="0.4" stroke-linecap="round"/>
<path d="M27.42 20.141L27.42 21.2081" stroke="#426BFF" stroke-width="0.4" stroke-linecap="round"/>
<path d="M27.9536 20.6746H26.8865" stroke="#426BFF" stroke-width="0.4" stroke-linecap="round"/>
<path d="M28.484 18.0068L28.484 19.0739" stroke="#426BFF" stroke-width="0.4" stroke-linecap="round"/>
<path d="M29.0175 18.5404H27.9504" stroke="#426BFF" stroke-width="0.4" stroke-linecap="round"/>
<path d="M8.38666 28.4962C8.28628 28.693 8.36444 28.9339 8.56123 29.0343C8.75802 29.1347 8.99892 29.0565 9.0993 28.8597L8.38666 28.4962ZM30.0855 10.5369L26.4285 13.3582L30.7004 15.1146L30.0855 10.5369ZM17.2039 18.6462L16.871 18.868L17.2039 18.6462ZM9.0993 28.8597L14.1142 19.0281L13.4015 18.6646L8.38666 28.4962L9.0993 28.8597ZM16.871 18.868L20.6906 24.6007L21.3564 24.1571L17.5367 18.4244L16.871 18.868ZM24.9076 24.1826L29.0865 14.0185L28.3466 13.7143L24.1677 23.8784L24.9076 24.1826ZM20.6906 24.6007C21.7565 26.2004 24.1767 25.9605 24.9076 24.1826L24.1677 23.8784C23.6804 25.0636 22.067 25.2236 21.3564 24.1571L20.6906 24.6007ZM14.1142 19.0281C14.6699 17.9387 16.1928 17.8502 16.871 18.868L17.5367 18.4244C16.5195 16.8977 14.2351 17.0304 13.4015 18.6646L14.1142 19.0281Z" fill="#426BFF"/>
</g>
<defs>
<filter id="filter0_d_31_1110" x="0.335938" y="0" width="38.1479" height="38.1479" filterUnits="userSpaceOnUse" color-interpolation-filters="sRGB">
<feFlood flood-opacity="0" result="BackgroundImageFix"/>
<feColorMatrix in="SourceAlpha" type="matrix" values="0 0 0 0 0 0 0 0 0 0 0 0 0 0 0 0 0 0 127 0" result="hardAlpha"/>
<feOffset/>
<feGaussianBlur stdDeviation="1"/>
<feComposite in2="hardAlpha" operator="out"/>
<feColorMatrix type="matrix" values="0 0 0 0 0 0 0 0 0 0 0 0 0 0 0 0 0 0 0.25 0"/>
<feBlend mode="normal" in2="BackgroundImageFix" result="effect1_dropShadow_31_1110"/>
<feBlend mode="normal" in="SourceGraphic" in2="effect1_dropShadow_31_1110" result="shape"/>
</filter>
<filter id="filter1_f_31_1110" x="4.3429" y="6.53687" width="30.3575" height="26.5412" filterUnits="userSpaceOnUse" color-interpolation-filters="sRGB">
<feFlood flood-opacity="0" result="BackgroundImageFix"/>
<feBlend mode="normal" in="SourceGraphic" in2="BackgroundImageFix" result="shape"/>
<feGaussianBlur stdDeviation="2" result="effect1_foregroundBlur_31_1110"/>
</filter>
</defs>
</svg>
