<svg xmlns="http://www.w3.org/2000/svg" xmlns:xlink="http://www.w3.org/1999/xlink" width="750" zoomAndPan="magnify" viewBox="0 0 562.5 187.499995" height="250" preserveAspectRatio="xMidYMid meet" version="1.0"><defs><clipPath id="4ec11880b1"><path d="M 36.449219 18.699219 L 189.054688 18.699219 L 189.054688 171.304688 L 36.449219 171.304688 Z M 36.449219 18.699219 " clip-rule="nonzero"/></clipPath><clipPath id="21835c54ae"><path d="M 112.753906 18.699219 C 70.613281 18.699219 36.449219 52.863281 36.449219 95 C 36.449219 137.140625 70.613281 171.304688 112.753906 171.304688 C 154.894531 171.304688 189.054688 137.140625 189.054688 95 C 189.054688 52.863281 154.894531 18.699219 112.753906 18.699219 Z M 112.753906 18.699219 " clip-rule="nonzero"/></clipPath><clipPath id="3a94656132"><path d="M 36.449219 18.699219 L 189.042969 18.699219 L 189.042969 171.292969 L 36.449219 171.292969 Z M 36.449219 18.699219 " clip-rule="nonzero"/></clipPath><clipPath id="bef51d04c9"><path d="M 112.746094 18.699219 C 70.609375 18.699219 36.449219 52.859375 36.449219 94.996094 C 36.449219 137.132812 70.609375 171.292969 112.746094 171.292969 C 154.886719 171.292969 189.042969 137.132812 189.042969 94.996094 C 189.042969 52.859375 154.886719 18.699219 112.746094 18.699219 Z M 112.746094 18.699219 " clip-rule="nonzero"/></clipPath><clipPath id="4817545c27"><path d="M 148.617188 18.699219 L 301.21875 18.699219 L 301.21875 171.304688 L 148.617188 171.304688 Z M 148.617188 18.699219 " clip-rule="nonzero"/></clipPath><clipPath id="740a8d0a2a"><path d="M 224.917969 18.699219 C 182.777344 18.699219 148.617188 52.863281 148.617188 95 C 148.617188 137.140625 182.777344 171.304688 224.917969 171.304688 C 267.058594 171.304688 301.21875 137.140625 301.21875 95 C 301.21875 52.863281 267.058594 18.699219 224.917969 18.699219 Z M 224.917969 18.699219 " clip-rule="nonzero"/></clipPath><clipPath id="4f41afaf8a"><path d="M 148.617188 18.699219 L 301.210938 18.699219 L 301.210938 171.292969 L 148.617188 171.292969 Z M 148.617188 18.699219 " clip-rule="nonzero"/></clipPath><clipPath id="a59662e9da"><path d="M 224.914062 18.699219 C 182.777344 18.699219 148.617188 52.859375 148.617188 94.996094 C 148.617188 137.132812 182.777344 171.292969 224.914062 171.292969 C 267.050781 171.292969 301.210938 137.132812 301.210938 94.996094 C 301.210938 52.859375 267.050781 18.699219 224.914062 18.699219 Z M 224.914062 18.699219 " clip-rule="nonzero"/></clipPath><clipPath id="703d16c40b"><path d="M 260.78125 18.699219 L 413.386719 18.699219 L 413.386719 171.304688 L 260.78125 171.304688 Z M 260.78125 18.699219 " clip-rule="nonzero"/></clipPath><clipPath id="53bdf413e4"><path d="M 337.082031 18.699219 C 294.941406 18.699219 260.78125 52.863281 260.78125 95 C 260.78125 137.140625 294.941406 171.304688 337.082031 171.304688 C 379.222656 171.304688 413.386719 137.140625 413.386719 95 C 413.386719 52.863281 379.222656 18.699219 337.082031 18.699219 Z M 337.082031 18.699219 " clip-rule="nonzero"/></clipPath><clipPath id="4c9a81957b"><path d="M 260.78125 18.699219 L 413.375 18.699219 L 413.375 171.292969 L 260.78125 171.292969 Z M 260.78125 18.699219 " clip-rule="nonzero"/></clipPath><clipPath id="fd6d348f82"><path d="M 337.078125 18.699219 C 294.941406 18.699219 260.78125 52.859375 260.78125 94.996094 C 260.78125 137.132812 294.941406 171.292969 337.078125 171.292969 C 379.214844 171.292969 413.375 137.132812 413.375 94.996094 C 413.375 52.859375 379.214844 18.699219 337.078125 18.699219 Z M 337.078125 18.699219 " clip-rule="nonzero"/></clipPath><clipPath id="2e3f5ae407"><path d="M 372.945312 18.699219 L 525.550781 18.699219 L 525.550781 171.304688 L 372.945312 171.304688 Z M 372.945312 18.699219 " clip-rule="nonzero"/></clipPath><clipPath id="1a0fb30fb8"><path d="M 449.25 18.699219 C 407.109375 18.699219 372.945312 52.863281 372.945312 95 C 372.945312 137.140625 407.109375 171.304688 449.25 171.304688 C 491.390625 171.304688 525.550781 137.140625 525.550781 95 C 525.550781 52.863281 491.390625 18.699219 449.25 18.699219 Z M 449.25 18.699219 " clip-rule="nonzero"/></clipPath><clipPath id="18301b01c7"><path d="M 372.945312 18.699219 L 525.539062 18.699219 L 525.539062 171.292969 L 372.945312 171.292969 Z M 372.945312 18.699219 " clip-rule="nonzero"/></clipPath><clipPath id="1a15aa24b0"><path d="M 449.242188 18.699219 C 407.105469 18.699219 372.945312 52.859375 372.945312 94.996094 C 372.945312 137.132812 407.105469 171.292969 449.242188 171.292969 C 491.382812 171.292969 525.539062 137.132812 525.539062 94.996094 C 525.539062 52.859375 491.382812 18.699219 449.242188 18.699219 Z M 449.242188 18.699219 " clip-rule="nonzero"/></clipPath><clipPath id="9cbf19f3c2"><path d="M 84.671875 50.875 L 140.773438 50.875 L 140.773438 118 L 84.671875 118 Z M 84.671875 50.875 " clip-rule="nonzero"/></clipPath><clipPath id="f32a422808"><path d="M 100 123 L 117 123 L 117 139.140625 L 100 139.140625 Z M 100 123 " clip-rule="nonzero"/></clipPath><clipPath id="7bc47a9dd8"><path d="M 196.839844 50.875 L 252.9375 50.875 L 252.9375 118 L 196.839844 118 Z M 196.839844 50.875 " clip-rule="nonzero"/></clipPath><clipPath id="c861974806"><path d="M 212 123 L 229 123 L 229 139.140625 L 212 139.140625 Z M 212 123 " clip-rule="nonzero"/></clipPath><clipPath id="465754fe71"><path d="M 308.699219 50.875 L 364.800781 50.875 L 364.800781 118 L 308.699219 118 Z M 308.699219 50.875 " clip-rule="nonzero"/></clipPath><clipPath id="4961135e0f"><path d="M 324 123 L 341 123 L 341 139.140625 L 324 139.140625 Z M 324 123 " clip-rule="nonzero"/></clipPath><clipPath id="bd29bbae58"><path d="M 421.167969 49.375 L 477.269531 49.375 L 477.269531 117 L 421.167969 117 Z M 421.167969 49.375 " clip-rule="nonzero"/></clipPath><clipPath id="6fe6aaad6c"><path d="M 437 121 L 454 121 L 454 137.640625 L 437 137.640625 Z M 437 121 " clip-rule="nonzero"/></clipPath></defs><g clip-path="url(#4ec11880b1)"><g clip-path="url(#21835c54ae)"><path fill="#171717" d="M 36.449219 18.699219 L 189.054688 18.699219 L 189.054688 171.304688 L 36.449219 171.304688 Z M 36.449219 18.699219 " fill-opacity="1" fill-rule="nonzero"/></g></g><g clip-path="url(#3a94656132)"><g clip-path="url(#bef51d04c9)"><path stroke-linecap="butt" transform="matrix(0.748005, 0, 0, 0.748005, 36.451011, 18.700132)" fill="none" stroke-linejoin="miter" d="M 101.998056 -0.00122047 C 45.665941 -0.00122047 -0.0023958 45.667116 -0.0023958 101.999231 C -0.0023958 158.331346 45.665941 203.999683 101.998056 203.999683 C 158.335393 203.999683 203.998507 158.331346 203.998507 101.999231 C 203.998507 45.667116 158.335393 -0.00122047 101.998056 -0.00122047 Z M 101.998056 -0.00122047 " stroke="#ffffff" stroke-width="16" stroke-opacity="1" stroke-miterlimit="4"/></g></g><g clip-path="url(#4817545c27)"><g clip-path="url(#740a8d0a2a)"><path fill="#171717" d="M 148.617188 18.699219 L 301.21875 18.699219 L 301.21875 171.304688 L 148.617188 171.304688 Z M 148.617188 18.699219 " fill-opacity="1" fill-rule="nonzero"/></g></g><g clip-path="url(#4f41afaf8a)"><g clip-path="url(#a59662e9da)"><path stroke-linecap="butt" transform="matrix(0.748005, 0, 0, 0.748005, 148.616417, 18.700132)" fill="none" stroke-linejoin="miter" d="M 102.001482 -0.00122047 C 45.669367 -0.00122047 0.00103044 45.667116 0.00103044 101.999231 C 0.00103044 158.331346 45.669367 203.999683 102.001482 203.999683 C 158.333597 203.999683 204.001934 158.331346 204.001934 101.999231 C 204.001934 45.667116 158.333597 -0.00122047 102.001482 -0.00122047 Z M 102.001482 -0.00122047 " stroke="#ffffff" stroke-width="16" stroke-opacity="1" stroke-miterlimit="4"/></g></g><g clip-path="url(#703d16c40b)"><g clip-path="url(#53bdf413e4)"><path fill="#171717" d="M 260.78125 18.699219 L 413.386719 18.699219 L 413.386719 171.304688 L 260.78125 171.304688 Z M 260.78125 18.699219 " fill-opacity="1" fill-rule="nonzero"/></g></g><g clip-path="url(#4c9a81957b)"><g clip-path="url(#fd6d348f82)"><path stroke-linecap="butt" transform="matrix(0.748005, 0, 0, 0.748005, 260.781808, 18.700132)" fill="none" stroke-linejoin="miter" d="M 101.999706 -0.00122047 C 45.667591 -0.00122047 -0.000745386 45.667116 -0.000745386 101.999231 C -0.000745386 158.331346 45.667591 203.999683 101.999706 203.999683 C 158.331821 203.999683 204.000158 158.331346 204.000158 101.999231 C 204.000158 45.667116 158.331821 -0.00122047 101.999706 -0.00122047 Z M 101.999706 -0.00122047 " stroke="#ffffff" stroke-width="16" stroke-opacity="1" stroke-miterlimit="4"/></g></g><g clip-path="url(#2e3f5ae407)"><g clip-path="url(#1a0fb30fb8)"><path fill="#171717" d="M 372.945312 18.699219 L 525.550781 18.699219 L 525.550781 171.304688 L 372.945312 171.304688 Z M 372.945312 18.699219 " fill-opacity="1" fill-rule="nonzero"/></g></g><g clip-path="url(#18301b01c7)"><g clip-path="url(#1a15aa24b0)"><path stroke-linecap="butt" transform="matrix(0.748005, 0, 0, 0.748005, 372.947213, 18.700132)" fill="none" stroke-linejoin="miter" d="M 101.997911 -0.00122047 C 45.665796 -0.00122047 -0.00254041 45.667116 -0.00254041 101.999231 C -0.00254041 158.331346 45.665796 203.999683 101.997911 203.999683 C 158.335248 203.999683 203.998363 158.331346 203.998363 101.999231 C 203.998363 45.667116 158.335248 -0.00122047 101.997911 -0.00122047 Z M 101.997911 -0.00122047 " stroke="#ffffff" stroke-width="16" stroke-opacity="1" stroke-miterlimit="4"/></g></g><g clip-path="url(#9cbf19f3c2)"><path fill="#ffffff" d="M 108.742188 117.726562 C 104.3125 117.726562 100.71875 114.136719 100.71875 109.703125 L 100.71875 99.007812 C 100.71875 94.578125 104.3125 90.988281 108.742188 90.988281 C 110.355469 90.96875 124.785156 88.3125 124.785156 77.617188 C 124.785156 72.269531 119.4375 66.921875 111.414062 66.921875 C 104.886719 66.921875 100.71875 72.269531 100.71875 74.941406 C 100.71875 79.375 97.128906 82.964844 92.699219 82.964844 C 88.265625 82.964844 84.675781 79.375 84.675781 74.941406 C 84.675781 61.898438 96.921875 50.875 111.414062 50.875 C 132.808594 50.875 140.828125 66.871094 140.828125 80.289062 C 140.828125 91.375 134.742188 99.84375 123.679688 104.140625 C 121.273438 105.082031 118.894531 105.710938 116.761719 106.140625 L 116.761719 109.703125 C 116.761719 114.136719 113.171875 117.726562 108.742188 117.726562 Z M 108.742188 117.726562 " fill-opacity="1" fill-rule="nonzero"/></g><g clip-path="url(#f32a422808)"><path fill="#ffffff" d="M 116.761719 131.097656 C 116.761719 131.621094 116.710938 132.144531 116.609375 132.660156 C 116.507812 133.179688 116.355469 133.679688 116.152344 134.167969 C 115.953125 134.652344 115.703125 135.113281 115.410156 135.554688 C 115.117188 135.992188 114.785156 136.394531 114.414062 136.769531 C 114.042969 137.140625 113.636719 137.472656 113.199219 137.765625 C 112.761719 138.058594 112.296875 138.304688 111.8125 138.507812 C 111.324219 138.710938 110.824219 138.859375 110.304688 138.964844 C 109.789062 139.066406 109.269531 139.117188 108.742188 139.117188 C 108.214844 139.117188 107.691406 139.066406 107.175781 138.964844 C 106.660156 138.859375 106.160156 138.710938 105.671875 138.507812 C 105.183594 138.304688 104.722656 138.058594 104.285156 137.765625 C 103.847656 137.472656 103.441406 137.140625 103.070312 136.769531 C 102.695312 136.394531 102.363281 135.992188 102.070312 135.554688 C 101.777344 135.113281 101.53125 134.652344 101.332031 134.167969 C 101.128906 133.679688 100.976562 133.179688 100.875 132.660156 C 100.769531 132.144531 100.71875 131.621094 100.71875 131.097656 C 100.71875 130.570312 100.769531 130.046875 100.875 129.53125 C 100.976562 129.015625 101.128906 128.511719 101.332031 128.027344 C 101.53125 127.539062 101.777344 127.078125 102.070312 126.640625 C 102.363281 126.203125 102.695312 125.796875 103.070312 125.421875 C 103.441406 125.050781 103.847656 124.71875 104.285156 124.425781 C 104.722656 124.132812 105.183594 123.886719 105.671875 123.683594 C 106.160156 123.484375 106.660156 123.332031 107.175781 123.226562 C 107.691406 123.125 108.214844 123.074219 108.742188 123.074219 C 109.269531 123.074219 109.789062 123.125 110.304688 123.226562 C 110.824219 123.332031 111.324219 123.484375 111.8125 123.683594 C 112.296875 123.886719 112.761719 124.132812 113.199219 124.425781 C 113.636719 124.71875 114.042969 125.050781 114.414062 125.421875 C 114.785156 125.796875 115.117188 126.203125 115.410156 126.640625 C 115.703125 127.078125 115.953125 127.539062 116.152344 128.027344 C 116.355469 128.511719 116.507812 129.015625 116.609375 129.53125 C 116.710938 130.046875 116.761719 130.570312 116.761719 131.097656 Z M 116.761719 131.097656 " fill-opacity="1" fill-rule="nonzero"/></g><g clip-path="url(#7bc47a9dd8)"><path fill="#ffffff" d="M 220.90625 117.726562 C 216.476562 117.726562 212.886719 114.136719 212.886719 109.703125 L 212.886719 99.007812 C 212.886719 94.578125 216.476562 90.988281 220.90625 90.988281 C 222.519531 90.96875 236.949219 88.3125 236.949219 77.617188 C 236.949219 72.269531 231.601562 66.921875 223.582031 66.921875 C 217.054688 66.921875 212.886719 72.269531 212.886719 74.941406 C 212.886719 79.375 209.292969 82.964844 204.863281 82.964844 C 200.433594 82.964844 196.839844 79.375 196.839844 74.941406 C 196.839844 61.898438 209.089844 50.875 223.582031 50.875 C 244.972656 50.875 252.996094 66.871094 252.996094 80.289062 C 252.996094 91.375 246.90625 99.84375 235.847656 104.140625 C 233.441406 105.082031 231.058594 105.710938 228.929688 106.140625 L 228.929688 109.703125 C 228.929688 114.136719 225.335938 117.726562 220.90625 117.726562 Z M 220.90625 117.726562 " fill-opacity="1" fill-rule="nonzero"/></g><g clip-path="url(#c861974806)"><path fill="#ffffff" d="M 228.929688 131.097656 C 228.929688 131.621094 228.878906 132.144531 228.773438 132.660156 C 228.671875 133.179688 228.519531 133.679688 228.316406 134.167969 C 228.117188 134.652344 227.871094 135.113281 227.578125 135.554688 C 227.285156 135.992188 226.953125 136.394531 226.578125 136.769531 C 226.207031 137.140625 225.800781 137.472656 225.363281 137.765625 C 224.925781 138.058594 224.464844 138.304688 223.976562 138.507812 C 223.488281 138.710938 222.988281 138.859375 222.472656 138.964844 C 221.957031 139.066406 221.433594 139.117188 220.90625 139.117188 C 220.378906 139.117188 219.859375 139.066406 219.34375 138.964844 C 218.824219 138.859375 218.324219 138.710938 217.835938 138.507812 C 217.351562 138.304688 216.886719 138.058594 216.449219 137.765625 C 216.011719 137.472656 215.605469 137.140625 215.234375 136.769531 C 214.863281 136.394531 214.53125 135.992188 214.238281 135.554688 C 213.945312 135.113281 213.695312 134.652344 213.496094 134.167969 C 213.292969 133.679688 213.140625 133.179688 213.039062 132.660156 C 212.9375 132.144531 212.886719 131.621094 212.886719 131.097656 C 212.886719 130.570312 212.9375 130.046875 213.039062 129.53125 C 213.140625 129.015625 213.292969 128.511719 213.496094 128.027344 C 213.695312 127.539062 213.945312 127.078125 214.238281 126.640625 C 214.53125 126.203125 214.863281 125.796875 215.234375 125.421875 C 215.605469 125.050781 216.011719 124.71875 216.449219 124.425781 C 216.886719 124.132812 217.351562 123.886719 217.835938 123.683594 C 218.324219 123.484375 218.824219 123.332031 219.34375 123.226562 C 219.859375 123.125 220.378906 123.074219 220.90625 123.074219 C 221.433594 123.074219 221.957031 123.125 222.472656 123.226562 C 222.988281 123.332031 223.488281 123.484375 223.976562 123.683594 C 224.464844 123.886719 224.925781 124.132812 225.363281 124.425781 C 225.800781 124.71875 226.207031 125.050781 226.578125 125.421875 C 226.953125 125.796875 227.285156 126.203125 227.578125 126.640625 C 227.871094 127.078125 228.117188 127.539062 228.316406 128.027344 C 228.519531 128.511719 228.671875 129.015625 228.773438 129.53125 C 228.878906 130.046875 228.929688 130.570312 228.929688 131.097656 Z M 228.929688 131.097656 " fill-opacity="1" fill-rule="nonzero"/></g><g clip-path="url(#465754fe71)"><path fill="#ffffff" d="M 332.769531 117.726562 C 328.335938 117.726562 324.746094 114.136719 324.746094 109.703125 L 324.746094 99.007812 C 324.746094 94.578125 328.335938 90.988281 332.769531 90.988281 C 334.378906 90.96875 348.8125 88.3125 348.8125 77.617188 C 348.8125 72.269531 343.464844 66.921875 335.441406 66.921875 C 328.914062 66.921875 324.746094 72.269531 324.746094 74.941406 C 324.746094 79.375 321.15625 82.964844 316.722656 82.964844 C 312.292969 82.964844 308.703125 79.375 308.703125 74.941406 C 308.703125 61.898438 320.949219 50.875 335.441406 50.875 C 356.832031 50.875 364.855469 66.871094 364.855469 80.289062 C 364.855469 91.375 358.765625 99.84375 347.707031 104.140625 C 345.300781 105.082031 342.921875 105.710938 340.789062 106.140625 L 340.789062 109.703125 C 340.789062 114.136719 337.199219 117.726562 332.769531 117.726562 Z M 332.769531 117.726562 " fill-opacity="1" fill-rule="nonzero"/></g><g clip-path="url(#4961135e0f)"><path fill="#ffffff" d="M 340.789062 131.097656 C 340.789062 131.621094 340.738281 132.144531 340.636719 132.660156 C 340.53125 133.179688 340.382812 133.679688 340.179688 134.167969 C 339.976562 134.652344 339.730469 135.113281 339.4375 135.554688 C 339.144531 135.992188 338.8125 136.394531 338.441406 136.769531 C 338.066406 137.140625 337.664062 137.472656 337.226562 137.765625 C 336.785156 138.058594 336.324219 138.304688 335.835938 138.507812 C 335.351562 138.710938 334.851562 138.859375 334.332031 138.964844 C 333.816406 139.066406 333.292969 139.117188 332.769531 139.117188 C 332.242188 139.117188 331.71875 139.066406 331.203125 138.964844 C 330.6875 138.859375 330.183594 138.710938 329.699219 138.507812 C 329.210938 138.304688 328.75 138.058594 328.3125 137.765625 C 327.875 137.472656 327.46875 137.140625 327.09375 136.769531 C 326.722656 136.394531 326.390625 135.992188 326.097656 135.554688 C 325.804688 135.113281 325.558594 134.652344 325.355469 134.167969 C 325.15625 133.679688 325.003906 133.179688 324.898438 132.660156 C 324.796875 132.144531 324.746094 131.621094 324.746094 131.097656 C 324.746094 130.570312 324.796875 130.046875 324.898438 129.53125 C 325.003906 129.015625 325.15625 128.511719 325.355469 128.027344 C 325.558594 127.539062 325.804688 127.078125 326.097656 126.640625 C 326.390625 126.203125 326.722656 125.796875 327.09375 125.421875 C 327.46875 125.050781 327.875 124.71875 328.3125 124.425781 C 328.75 124.132812 329.210938 123.886719 329.699219 123.683594 C 330.183594 123.484375 330.6875 123.332031 331.203125 123.226562 C 331.71875 123.125 332.242188 123.074219 332.769531 123.074219 C 333.292969 123.074219 333.816406 123.125 334.332031 123.226562 C 334.851562 123.332031 335.351562 123.484375 335.835938 123.683594 C 336.324219 123.886719 336.785156 124.132812 337.226562 124.425781 C 337.664062 124.71875 338.066406 125.050781 338.441406 125.421875 C 338.8125 125.796875 339.144531 126.203125 339.4375 126.640625 C 339.730469 127.078125 339.976562 127.539062 340.179688 128.027344 C 340.382812 128.511719 340.53125 129.015625 340.636719 129.53125 C 340.738281 130.046875 340.789062 130.570312 340.789062 131.097656 Z M 340.789062 131.097656 " fill-opacity="1" fill-rule="nonzero"/></g><g clip-path="url(#bd29bbae58)"><path fill="#ffffff" d="M 445.238281 116.226562 C 440.808594 116.226562 437.214844 112.632812 437.214844 108.203125 L 437.214844 97.507812 C 437.214844 93.078125 440.808594 89.484375 445.238281 89.484375 C 446.851562 89.46875 461.28125 86.8125 461.28125 76.117188 C 461.28125 70.769531 455.933594 65.417969 447.910156 65.417969 C 441.382812 65.417969 437.214844 70.769531 437.214844 73.441406 C 437.214844 77.871094 433.625 81.464844 429.195312 81.464844 C 424.761719 81.464844 421.171875 77.871094 421.171875 73.441406 C 421.171875 60.398438 433.417969 49.375 447.910156 49.375 C 469.304688 49.375 477.324219 65.371094 477.324219 78.789062 C 477.324219 89.875 471.238281 98.34375 460.175781 102.640625 C 457.769531 103.578125 455.390625 104.210938 453.257812 104.640625 L 453.257812 108.203125 C 453.257812 112.632812 449.667969 116.226562 445.238281 116.226562 Z M 445.238281 116.226562 " fill-opacity="1" fill-rule="nonzero"/></g><g clip-path="url(#6fe6aaad6c)"><path fill="#ffffff" d="M 453.257812 129.59375 C 453.257812 130.121094 453.207031 130.644531 453.105469 131.160156 C 453.003906 131.675781 452.851562 132.179688 452.648438 132.664062 C 452.449219 133.152344 452.199219 133.613281 451.90625 134.050781 C 451.613281 134.488281 451.28125 134.894531 450.910156 135.265625 C 450.539062 135.640625 450.132812 135.972656 449.695312 136.265625 C 449.257812 136.558594 448.792969 136.804688 448.308594 137.007812 C 447.820312 137.207031 447.320312 137.359375 446.804688 137.464844 C 446.285156 137.566406 445.765625 137.617188 445.238281 137.617188 C 444.710938 137.617188 444.1875 137.566406 443.671875 137.464844 C 443.15625 137.359375 442.65625 137.207031 442.167969 137.007812 C 441.679688 136.804688 441.21875 136.558594 440.78125 136.265625 C 440.34375 135.972656 439.9375 135.640625 439.566406 135.265625 C 439.191406 134.894531 438.859375 134.488281 438.566406 134.050781 C 438.273438 133.613281 438.027344 133.152344 437.828125 132.664062 C 437.625 132.179688 437.472656 131.675781 437.371094 131.160156 C 437.265625 130.644531 437.214844 130.121094 437.214844 129.59375 C 437.214844 129.070312 437.265625 128.546875 437.371094 128.03125 C 437.472656 127.511719 437.625 127.011719 437.828125 126.523438 C 438.027344 126.039062 438.273438 125.578125 438.566406 125.136719 C 438.859375 124.699219 439.191406 124.296875 439.566406 123.921875 C 439.9375 123.550781 440.34375 123.21875 440.78125 122.925781 C 441.21875 122.632812 441.679688 122.386719 442.167969 122.183594 C 442.65625 121.980469 443.15625 121.832031 443.671875 121.726562 C 444.1875 121.625 444.710938 121.574219 445.238281 121.574219 C 445.765625 121.574219 446.285156 121.625 446.804688 121.726562 C 447.320312 121.832031 447.820312 121.980469 448.308594 122.183594 C 448.792969 122.386719 449.257812 122.632812 449.695312 122.925781 C 450.132812 123.21875 450.539062 123.550781 450.910156 123.921875 C 451.28125 124.296875 451.613281 124.699219 451.90625 125.136719 C 452.199219 125.578125 452.449219 126.039062 452.648438 126.523438 C 452.851562 127.011719 453.003906 127.511719 453.105469 128.03125 C 453.207031 128.546875 453.257812 129.070312 453.257812 129.59375 Z M 453.257812 129.59375 " fill-opacity="1" fill-rule="nonzero"/></g></svg>