<svg xmlns="http://www.w3.org/2000/svg" xmlns:xlink="http://www.w3.org/1999/xlink" width="500" zoomAndPan="magnify" viewBox="0 0 375 374.999991" height="500" preserveAspectRatio="xMidYMid meet" version="1.0"><defs><clipPath id="8e96c1ed73"><path d="M 51 63 L 323.972656 63 L 323.972656 311.917969 L 51 311.917969 Z M 51 63 " clip-rule="nonzero"/></clipPath></defs><rect x="-37.5" width="450" fill="#ffffff" y="-37.499999" height="449.999989" fill-opacity="1"/><rect x="-37.5" width="450" fill="#000000" y="-37.499999" height="449.999989" fill-opacity="1"/><g clip-path="url(#8e96c1ed73)"><path fill="#c1ff72" d="M 323.460938 199.007812 L 266.804688 165.003906 L 266.804688 187.664062 L 125.75 187.664062 C 140.355469 178.117188 153.847656 165.773438 165.6875 150.648438 C 187.03125 123.375 214.890625 108.355469 244.148438 108.355469 L 244.148438 131.015625 L 300.796875 97.035156 L 244.148438 63.03125 L 244.148438 85.691406 C 206.539062 85.691406 172.480469 105.191406 147.84375 136.683594 C 123.199219 168.164062 89.140625 187.664062 51.53125 187.664062 L 51.53125 210.328125 C 114.003906 210.335938 173.136719 234.65625 216.78125 278.804688 L 218.476562 280.507812 L 202.71875 296.265625 L 266.804688 312.296875 L 250.796875 248.203125 L 234.523438 264.476562 L 232.816406 262.785156 C 211.042969 240.984375 185.328125 223.160156 156.890625 210.328125 L 266.804688 210.328125 L 266.804688 232.984375 Z M 323.460938 199.007812 " fill-opacity="1" fill-rule="nonzero"/></g></svg>