<svg xmlns="http://www.w3.org/2000/svg" xmlns:xlink="http://www.w3.org/1999/xlink" width="500" zoomAndPan="magnify" viewBox="0 0 375 374.999991" height="500" preserveAspectRatio="xMidYMid meet" version="1.0"><defs><clipPath id="12c92abce7"><path d="M 122 165 L 253 165 L 253 296.28125 L 122 296.28125 Z M 122 165 " clip-rule="nonzero"/></clipPath><clipPath id="716015b39e"><path d="M 151 78.78125 L 224 78.78125 L 224 172 L 151 172 Z M 151 78.78125 " clip-rule="nonzero"/></clipPath></defs><rect x="-37.5" width="450" fill="#ffffff" y="-37.499999" height="449.999989" fill-opacity="1"/><rect x="-37.5" width="450" fill="#000000" y="-37.499999" height="449.999989" fill-opacity="1"/><path fill="#38b6ff" d="M 187.496094 194.742188 C 167.515625 194.742188 151.257812 211 151.257812 230.980469 C 151.257812 250.964844 167.515625 267.21875 187.496094 267.21875 C 207.476562 267.21875 223.734375 250.964844 223.734375 230.980469 C 223.734375 211 207.476562 194.742188 187.496094 194.742188 Z M 206.824219 233.398438 L 187.496094 233.398438 C 186.160156 233.398438 185.082031 232.316406 185.082031 230.980469 L 185.082031 211.65625 C 185.082031 210.320312 186.160156 209.238281 187.496094 209.238281 C 188.832031 209.238281 189.910156 210.320312 189.910156 211.65625 L 189.910156 228.566406 L 206.824219 228.566406 C 208.15625 228.566406 209.238281 229.648438 209.238281 230.980469 C 209.238281 232.316406 208.15625 233.398438 206.824219 233.398438 Z M 206.824219 233.398438 " fill-opacity="1" fill-rule="nonzero"/><g clip-path="url(#12c92abce7)"><path fill="#38b6ff" d="M 187.496094 165.753906 C 151.527344 165.753906 122.265625 195.015625 122.265625 230.980469 C 122.265625 266.949219 151.527344 296.210938 187.496094 296.210938 C 223.464844 296.210938 252.726562 266.949219 252.726562 230.980469 C 252.726562 195.015625 223.464844 165.753906 187.496094 165.753906 Z M 187.496094 272.050781 C 164.851562 272.050781 146.425781 253.628906 146.425781 230.980469 C 146.425781 208.335938 164.851562 189.910156 187.496094 189.910156 C 210.140625 189.910156 228.566406 208.335938 228.566406 230.980469 C 228.566406 253.628906 210.140625 272.050781 187.496094 272.050781 Z M 187.496094 272.050781 " fill-opacity="1" fill-rule="nonzero"/></g><g clip-path="url(#716015b39e)"><path fill="#38b6ff" d="M 165.753906 163.335938 L 165.753906 119.851562 C 165.753906 107.863281 175.507812 98.109375 187.496094 98.109375 C 199.484375 98.109375 209.238281 107.863281 209.238281 119.851562 L 209.238281 163.335938 C 209.238281 163.683594 209.164062 164.011719 209.03125 164.3125 C 214.21875 165.992188 219.148438 168.257812 223.734375 171.039062 L 223.734375 115.019531 C 223.734375 95.039062 207.476562 78.78125 187.496094 78.78125 C 167.515625 78.78125 151.257812 95.039062 151.257812 115.019531 L 151.257812 171.039062 C 155.84375 168.257812 160.769531 165.992188 165.960938 164.3125 C 165.828125 164.011719 165.753906 163.683594 165.753906 163.335938 Z M 165.753906 163.335938 " fill-opacity="1" fill-rule="nonzero"/></g></svg>