<svg viewBox="0 0 40 40" color="text"
    xmlns="http://www.w3.org/2000/svg" role="img">
    <path fillRule="evenodd" clipRule="evenodd" d="M3.133 26.658v.103a7.597 7.597 0 1 0 15.193-.103h-3.594l.001.103a4.004 4.004 0 1 1-8.006-.103H3.133Zm7.596-20.944a8.932 8.932 0 1 1 0 17.864 8.932 8.932 0 0 1 0-17.864Zm0 3.594a5.339 5.339 0 1 1 0 10.677 5.339 5.339 0 0 1 0-10.677Zm.616 3.595a1.849 1.849 0 1 1-1.232 0V11.67h1.232v1.234Zm11.401 4.052a7.597 7.597 0 1 1 13.336 0 10.758 10.758 0 0 0-3.153-1.723 4.004 4.004 0 1 0-7.028 0 10.76 10.76 0 0 0-3.155 1.723Zm6.668 17.403a8.932 8.932 0 1 0 0-17.864 8.932 8.932 0 0 0 0 17.864Zm0-3.593a5.339 5.339 0 1 0 0-10.678 5.339 5.339 0 0 0 0 10.678Zm.616-3.596a1.849 1.849 0 1 0-1.232 0v1.234h1.232V27.17Z" fill="#DEAE30"></path>
</svg>