<svg viewBox="0 0 40 40"
    xmlns="http://www.w3.org/2000/svg">
    <path d="M8.681 12.476c6.251-6.079 16.387-6.079 22.638 0l.752.731a.763.763 0 0 1 0 1.1l-2.573 2.503a.408.408 0 0 1-.566 0l-1.035-1.006c-4.362-4.241-11.432-4.241-15.793 0l-1.11 1.078a.408.408 0 0 1-.565 0l-2.574-2.503a.763.763 0 0 1 0-1.1l.826-.803Zm27.96 5.175 2.291 2.227a.763.763 0 0 1 0 1.101L28.604 31.022a.817.817 0 0 1-1.132 0l-7.33-7.128a.204.204 0 0 0-.283 0l-7.33 7.128a.817.817 0 0 1-1.133 0L1.068 20.979a.763.763 0 0 1 0-1.1l2.29-2.228a.817.817 0 0 1 1.132 0l7.33 7.128a.204.204 0 0 0 .284 0l7.33-7.128a.817.817 0 0 1 1.132 0l7.33 7.128a.204.204 0 0 0 .283 0l7.33-7.128a.816.816 0 0 1 1.133 0Z" fill="#3389FB"></path>
</svg>