<svg width="22" height="22" viewBox="0 0 22 22" fill="none" xmlns="http://www.w3.org/2000/svg">
<path d="M2.92969 5.93457C2.92969 4.27771 4.27283 2.93457 5.92969 2.93457H16.0672C17.7241 2.93457 19.0672 4.27772 19.0672 5.93457V16.0721C19.0672 17.729 17.7241 19.0721 16.0672 19.0721H5.92969C4.27283 19.0721 2.92969 17.729 2.92969 16.0721V5.93457Z" fill="white"/>
<circle cx="6.60315" cy="0.733524" r="0.733524" fill="white"/>
<circle cx="6.60315" cy="21.2721" r="0.733524" fill="white"/>
<circle cx="0.733517" cy="6.6012" r="0.733524" transform="rotate(90 0.733517 6.6012)" fill="white"/>
<circle cx="21.2687" cy="15.4047" r="0.733524" transform="rotate(-90 21.2687 15.4047)" fill="white"/>
<circle cx="11.0059" cy="0.733524" r="0.733524" fill="white"/>
<circle cx="11.0059" cy="21.2721" r="0.733524" fill="white"/>
<circle cx="0.733517" cy="11.0031" r="0.733524" transform="rotate(90 0.733517 11.0031)" fill="white"/>
<circle cx="21.2687" cy="11.0028" r="0.733524" transform="rotate(-90 21.2687 11.0028)" fill="white"/>
<circle cx="15.4085" cy="0.733524" r="0.733524" fill="white"/>
<circle cx="15.4085" cy="21.2721" r="0.733524" fill="white"/>
<circle cx="0.733517" cy="15.4039" r="0.733524" transform="rotate(90 0.733517 15.4039)" fill="white"/>
<circle cx="21.2687" cy="6.60192" r="0.733524" transform="rotate(-90 21.2687 6.60192)" fill="white"/>
<path d="M8.67988 10.7059L8.51988 11.3059H9.90988L9.75988 10.7059C9.67322 10.3792 9.58322 10.0325 9.48988 9.66586C9.40322 9.29919 9.31655 8.94586 9.22988 8.60586H9.18988C9.10988 8.95253 9.02655 9.30919 8.93988 9.67586C8.85988 10.0359 8.77322 10.3792 8.67988 10.7059ZM6.31988 14.0059L8.35988 7.48586H10.1299L12.1699 14.0059H10.6099L10.2099 12.4559H8.21988L7.81988 14.0059H6.31988ZM13.3823 14.0059V7.48586H14.8523V14.0059H13.3823Z" fill="black"/>
</svg>
