<svg width="15" height="22" viewBox="0 0 165 195" fill="none" xmlns="http://www.w3.org/2000/svg">
    <path d="M0 4H71C120.706 4 161 44.2944 161 94V101C161 150.706 120.706 191 71 191H0"
        stroke="white" stroke-width="8" />
    <line x1="3.5" y1="4" x2="3.5" y2="20" stroke="white" stroke-width="7" />
    <line x1="3.5" y1="29" x2="3.49999" y2="169" stroke="white" stroke-width="7" />
    <line x1="3.5" y1="175" x2="3.5" y2="191" stroke="white" stroke-width="7" />
    <path fill-rule="evenodd" clip-rule="evenodd"
        d="M0.239045 190.512C0.159218 190.466 0.079536 190.419 0 190.372V180.456C0.42466 180.849 0.866889 181.23 1.32657 181.596C11.4438 189.66 26.1828 187.996 34.247 177.879C42.3113 167.761 40.647 153.022 30.5297 144.958C21.3449 137.637 8.35083 138.334 0 146.095V136.177C10.8916 129.778 25.048 130.358 35.5162 138.702C49.0884 149.52 51.3211 169.293 40.5029 182.865C37.9698 186.043 34.9458 188.599 31.6255 190.512H0.239045Z"
        fill="white" />
    <path fill-rule="evenodd" clip-rule="evenodd"
        d="M0.0638709 190.512C0.0425734 190.498 0.0212831 190.484 0 190.47V180.516C0.321584 180.788 0.648083 181.056 0.979484 181.32C7.62685 186.619 15.3525 189.647 23.2206 190.512H0.0638709ZM55.947 190.512C60.4686 187.578 64.6017 183.876 68.1463 179.429C85.821 157.254 82.1733 124.95 59.9989 107.276C42.2568 93.1336 18.0297 92.6422 0 104.369V114.325C15.4736 101.209 38.5499 100.409 55.0125 113.531C73.7319 128.452 76.8112 155.723 61.8904 174.442C54.3986 183.841 43.7932 189.298 32.7201 190.512H55.947Z"
        fill="white" />
    <path fill-rule="evenodd" clip-rule="evenodd"
        d="M83.8534 189.601C89.042 185.835 93.8141 181.314 98.0046 176.057C122.993 144.707 117.836 99.0359 86.4859 74.0475C60.8535 53.6165 25.6474 53.3378 0 71.0509V81.0845C23.0534 61.9256 57.1366 60.8842 81.4995 80.3033C109.394 102.538 113.983 143.176 91.7487 171.071C84.6709 179.95 75.7283 186.468 65.9254 190.511H71C75.364 190.511 79.6554 190.201 83.8534 189.601ZM16.5425 190.511C11.0788 188.248 5.837 185.19 0.981266 181.32C0.650907 181.057 0.323816 180.791 0 180.522V190.511H16.5425Z"
        fill="white" />
    <path fill-rule="evenodd" clip-rule="evenodd"
        d="M129.617 168.807C157.671 129.081 150.181 73.8754 111.661 43.172C78.5116 16.7492 32.7973 16.7748 0 40.3713V50.4853C30.1631 25.3841 74.7837 24.0083 106.675 49.4278C143.172 78.5189 149.176 131.689 120.084 168.186C114.827 174.782 108.782 180.383 102.192 184.96C112.315 181.219 121.582 175.71 129.617 168.807ZM15.0218 190.512C10.2658 188.033 5.67768 185.064 1.32657 181.596C0.879805 181.239 0.437614 180.88 0 180.517V190.512H15.0218Z"
        fill="white" />
    <circle cx="71" cy="164" r="9" fill="white" />
    <circle cx="98" cy="90" r="9" fill="white" />
    <circle cx="48" cy="29" r="9" fill="white" />
</svg>