<svg width="69" height="70" viewBox="0 0 69 70" fill="none" xmlns="http://www.w3.org/2000/svg">
<g clip-path="url(#clip0_213_92)">
<path d="M34.5 69C53.2777 69 68.5 53.7777 68.5 35C68.5 16.2223 53.2777 1 34.5 1C15.7223 1 0.5 16.2223 0.5 35C0.5 53.7777 15.7223 69 34.5 69Z" fill="black" stroke="#426BFF"/>
<path fill-rule="evenodd" clip-rule="evenodd" d="M49.1667 46.4643C50.5272 45.4652 51.7183 44.247 52.6828 42.8171C57.9151 35.06 54.4966 24.0093 45.0474 18.1347C42.5407 16.5762 39.8613 15.5386 37.1797 15C46.3533 21.2618 49.7185 32.053 44.6576 39.556C44.2852 40.108 43.8773 40.6274 43.4372 41.1137C42.7293 41.7059 42.2407 42.5416 42.1219 43.5087C41.8653 45.5989 43.4338 47.5115 45.6253 47.7806C47.0204 47.9519 48.3317 47.4158 49.1667 46.4643Z" fill="url(#paint0_linear_213_92)"/>
<path fill-rule="evenodd" clip-rule="evenodd" d="M18.9864 24.7665C17.7178 25.8698 16.6369 27.1782 15.7997 28.68C11.2569 36.8287 15.6108 47.5843 25.5243 52.7034C28.1542 54.0614 30.9111 54.8863 33.6274 55.2133C23.9551 49.6863 19.6767 39.1854 24.0706 31.3037C24.3941 30.7234 24.7559 30.173 25.1526 29.653C25.806 29.0068 26.2202 28.1353 26.2553 27.1617C26.3311 25.0565 24.605 23.2715 22.3998 23.175C20.9957 23.1136 19.7359 23.7515 18.9864 24.7665Z" fill="url(#paint1_linear_213_92)"/>
<g filter="url(#filter0_f_213_92)">
<path fill-rule="evenodd" clip-rule="evenodd" d="M49.1665 46.4645C50.5272 45.4653 51.7183 44.2471 52.6829 42.8171C57.9152 35.06 54.4966 24.0093 45.0474 18.1347C42.5407 16.5762 39.8613 15.5386 37.1797 15C46.3533 21.2618 49.7185 32.053 44.6576 39.556C44.2853 40.108 43.8774 40.6273 43.4373 41.1136C42.7294 41.7058 42.2407 42.5415 42.1219 43.5087C41.8653 45.5989 43.4338 47.5115 45.6253 47.7806C47.0203 47.9519 48.3315 47.4159 49.1665 46.4645Z" fill="#426BFF"/>
<path fill-rule="evenodd" clip-rule="evenodd" d="M18.9864 24.7665C17.7179 25.8698 16.6369 27.1782 15.7997 28.68C11.2569 36.8287 15.6108 47.5843 25.5243 52.7034C28.1542 54.0614 30.9111 54.8863 33.6274 55.2133C23.9551 49.6863 19.6767 39.1854 24.0706 31.3037C24.3941 30.7234 24.7559 30.173 25.1526 29.653C25.806 29.0069 26.2202 28.1353 26.2553 27.1617C26.3311 25.0565 24.605 23.2715 22.3998 23.175C20.9957 23.1136 19.736 23.7514 18.9864 24.7665Z" fill="#426BFF"/>
</g>
<g filter="url(#filter1_f_213_92)">
<path d="M45.4998 47.2465C47.6372 47.5089 49.5728 46.069 49.8232 44.0304C50.0735 41.9917 48.5437 40.1263 46.4063 39.8639C44.2688 39.6014 42.3332 41.0413 42.0829 43.08C41.8326 45.1187 43.3624 46.9841 45.4998 47.2465Z" fill="#5F9AFF"/>
</g>
<g filter="url(#filter2_f_213_92)">
<path d="M21.3611 30.5439C23.4985 30.8063 25.4342 29.3664 25.6845 27.3277C25.9348 25.2891 24.405 23.4237 22.2676 23.1612C20.1302 22.8988 18.1945 24.3387 17.9442 26.3774C17.6939 28.416 19.2237 30.2814 21.3611 30.5439Z" fill="#5F9AFF"/>
</g>
</g>
<defs>
<filter id="filter0_f_213_92" x="9" y="10" width="51.1348" height="50.2134" filterUnits="userSpaceOnUse" color-interpolation-filters="sRGB">
<feFlood flood-opacity="0" result="BackgroundImageFix"/>
<feBlend mode="normal" in="SourceGraphic" in2="BackgroundImageFix" result="shape"/>
<feGaussianBlur stdDeviation="2.5" result="effect1_foregroundBlur_213_92"/>
</filter>
<filter id="filter1_f_213_92" x="39.0557" y="36.833" width="13.7939" height="13.4443" filterUnits="userSpaceOnUse" color-interpolation-filters="sRGB">
<feFlood flood-opacity="0" result="BackgroundImageFix"/>
<feBlend mode="normal" in="SourceGraphic" in2="BackgroundImageFix" result="shape"/>
<feGaussianBlur stdDeviation="1.5" result="effect1_foregroundBlur_213_92"/>
</filter>
<filter id="filter2_f_213_92" x="14.917" y="20.1304" width="13.7939" height="13.4443" filterUnits="userSpaceOnUse" color-interpolation-filters="sRGB">
<feFlood flood-opacity="0" result="BackgroundImageFix"/>
<feBlend mode="normal" in="SourceGraphic" in2="BackgroundImageFix" result="shape"/>
<feGaussianBlur stdDeviation="1.5" result="effect1_foregroundBlur_213_92"/>
</filter>
<linearGradient id="paint0_linear_213_92" x1="47.2715" y1="16.2391" x2="43.4318" y2="47.5112" gradientUnits="userSpaceOnUse">
<stop stop-color="#426BFF" stop-opacity="0"/>
<stop offset="1" stop-color="#426BFF"/>
</linearGradient>
<linearGradient id="paint1_linear_213_92" x1="24.607" y1="23.2717" x2="23.2287" y2="54.7581" gradientUnits="userSpaceOnUse">
<stop stop-color="#426BFF"/>
<stop offset="1" stop-color="#426BFF" stop-opacity="0"/>
</linearGradient>
<clipPath id="clip0_213_92">
<rect width="69" height="69" fill="white" transform="translate(0 0.5)"/>
</clipPath>
</defs>
</svg>
