<svg width="36" height="36" viewBox="0 0 36 36" fill="none" xmlns="http://www.w3.org/2000/svg">
<g clip-path="url(#clip0_5242_82366)">
<path d="M11.7607 4.69891C11.7607 5.10046 11.6458 5.49042 11.4275 5.82633C11.2092 6.15838 10.899 6.41707 10.5352 6.57151C10.1713 6.72595 9.77304 6.76456 9.39006 6.68734C9.00325 6.61012 8.65091 6.41707 8.37133 6.13521C8.09559 5.85336 7.9041 5.49042 7.8275 5.0966C7.75091 4.70277 7.78921 4.29737 7.93857 3.92671C8.08793 3.55605 8.34452 3.23945 8.67006 3.01551C8.99942 2.79157 9.3824 2.67188 9.77687 2.67188C10.3054 2.67188 10.8071 2.88423 11.1824 3.26647C11.5539 3.64871 11.7607 4.16223 11.7607 4.69891Z" fill="#1AB578"/>
<path d="M19.7172 4.69505C19.721 5.0966 19.6023 5.49428 19.384 5.83019C19.1657 6.1661 18.8555 6.42865 18.4878 6.58309C18.124 6.73754 17.7219 6.78001 17.3351 6.70279C16.9483 6.62557 16.5921 6.43251 16.3125 6.1468C16.0329 5.86108 15.8415 5.49815 15.7649 5.10046C15.6883 4.70664 15.7266 4.29351 15.8798 3.92285C16.0329 3.54833 16.2895 3.23172 16.6189 3.01165C16.9483 2.78771 17.3351 2.67188 17.7295 2.67188C18.2542 2.67574 18.7598 2.88809 19.1312 3.26647C19.5066 3.64485 19.7172 4.15837 19.7172 4.69505Z" fill="#1AB578"/>
<path d="M7.8428 11.7029C7.8428 12.1044 7.72791 12.4944 7.50961 12.8303C7.29131 13.1623 6.9811 13.4249 6.61727 13.5755C6.25344 13.7299 5.85514 13.7685 5.47216 13.6913C5.08536 13.6141 4.73302 13.421 4.45727 13.1353C4.1777 12.8535 3.99004 12.4905 3.91344 12.0967C3.83685 11.7029 3.87514 11.2975 4.0245 10.9268C4.17387 10.5561 4.43046 10.2395 4.75599 10.0195C5.08153 9.79552 5.4645 9.67969 5.85897 9.67969C6.38748 9.67969 6.88919 9.89204 7.2645 10.2743C7.63216 10.6527 7.8428 11.1662 7.8428 11.7029Z" fill="#1AB578"/>
<path d="M31.6473 11.7029C31.6473 12.1044 31.5324 12.4944 31.3103 12.8303C31.092 13.1623 30.7818 13.4249 30.418 13.5755C30.0541 13.7299 29.6558 13.7685 29.269 13.6913C28.8861 13.6141 28.5299 13.421 28.2541 13.1353C27.9784 12.8535 27.7869 12.4905 27.7103 12.0967C27.6337 11.7029 27.672 11.2975 27.8214 10.9268C27.9707 10.5561 28.2273 10.2395 28.5529 10.0195C28.8784 9.79552 29.2614 9.67969 29.6558 9.67969C30.1844 9.67969 30.6861 9.89204 31.0614 10.2743C31.4405 10.6527 31.6512 11.1662 31.6473 11.7029Z" fill="#1AB578"/>
<path d="M27.6547 4.69505C27.6585 5.0966 27.5398 5.49428 27.3215 5.83019C27.1032 6.1661 26.793 6.42865 26.4253 6.58309C26.0615 6.73754 25.6594 6.78001 25.2726 6.70279C24.8858 6.62557 24.5296 6.43251 24.25 6.1468C23.9704 5.86108 23.779 5.49815 23.7024 5.10046C23.6258 4.70664 23.6641 4.29351 23.8173 3.92285C23.9704 3.54833 24.227 3.23172 24.5564 3.01165C24.8858 2.78771 25.2726 2.67188 25.667 2.67188C26.1917 2.67574 26.6973 2.88809 27.0687 3.26647C27.4479 3.64485 27.6547 4.15837 27.6547 4.69505Z" fill="#1AB578"/>
<path d="M3.85016 18.7302C3.85399 19.1317 3.73526 19.5294 3.51697 19.8653C3.29867 20.2012 2.98845 20.4638 2.62462 20.6182C2.26079 20.7726 1.85867 20.8151 1.47186 20.7379C1.08505 20.6607 0.72888 20.4676 0.445475 20.1819C0.165901 19.8962 -0.0255883 19.5333 -0.102184 19.1394C-0.17878 18.7456 -0.140482 18.3325 0.00887974 17.9618C0.158241 17.5873 0.414837 17.2707 0.744199 17.0468C1.07356 16.8228 1.46037 16.7031 1.85484 16.7031C2.11526 16.7031 2.37569 16.7533 2.61696 16.8537C2.85824 16.9541 3.08037 17.1047 3.2642 17.2939C3.44803 17.4831 3.59739 17.707 3.69697 17.9502C3.79654 18.1973 3.85016 18.4638 3.85016 18.7302Z" fill="#1AB578"/>
<path d="M7.8428 25.7029C7.8428 26.1044 7.72791 26.4944 7.50961 26.8303C7.29131 27.1623 6.9811 27.421 6.61727 27.5755C6.25344 27.7299 5.85514 27.7685 5.47216 27.6913C5.08919 27.6141 4.73302 27.421 4.45727 27.1392C4.1777 26.8573 3.99004 26.4944 3.91344 26.1006C3.83685 25.7067 3.87514 25.3013 4.0245 24.9307C4.17387 24.56 4.43046 24.2434 4.75599 24.0195C5.08153 23.7955 5.4645 23.6797 5.85897 23.6797C6.1194 23.6797 6.37982 23.7299 6.6211 23.8303C6.86238 23.9307 7.08067 24.0812 7.2645 24.2704C7.44833 24.4596 7.59387 24.6836 7.69344 24.9307C7.79302 25.1739 7.8428 25.4403 7.8428 25.7029Z" fill="#1AB578"/>
<path d="M31.6473 25.7029C31.6473 26.1044 31.5286 26.4944 31.3103 26.8303C31.092 27.1623 30.7818 27.421 30.418 27.5755C30.0541 27.7299 29.6558 27.7685 29.269 27.6913C28.8861 27.6141 28.5299 27.421 28.2541 27.1392C27.9784 26.8573 27.7869 26.4944 27.7103 26.1006C27.6337 25.7067 27.672 25.3013 27.8214 24.9307C27.9707 24.56 28.2273 24.2434 28.5529 24.0195C28.8784 23.7955 29.2614 23.6797 29.6558 23.6797C29.9163 23.6797 30.1767 23.7299 30.418 23.8303C30.6593 23.9307 30.8776 24.0812 31.0614 24.2704C31.2452 24.4596 31.3907 24.6836 31.4903 24.9307C31.6014 25.1739 31.6512 25.4403 31.6473 25.7029Z" fill="#1AB578"/>
<path d="M35.6663 18.7341C35.6702 19.1357 35.5514 19.5333 35.3332 19.8693C35.1149 20.2052 34.8046 20.4677 34.437 20.6222C34.0732 20.7766 33.671 20.8191 33.2842 20.7418C32.8974 20.6646 32.5374 20.4677 32.2578 20.1859C31.9783 19.9001 31.7868 19.5372 31.7102 19.1395C31.6336 18.7457 31.6719 18.3326 31.8251 17.9619C31.9783 17.5913 32.2349 17.2708 32.5642 17.0507C32.8936 16.8268 33.2804 16.7109 33.6749 16.7109C34.2034 16.7109 34.7089 16.9233 35.0804 17.3055C35.4557 17.6839 35.6663 18.1974 35.6663 18.7341Z" fill="#1AB578"/>
<path d="M11.7607 32.8317C11.7607 33.2333 11.6458 33.6232 11.4275 33.9591C11.2092 34.2912 10.899 34.5499 10.5352 34.7043C10.1713 34.8588 9.77304 34.8974 9.39006 34.8202C9.00325 34.7429 8.65091 34.5499 8.37133 34.2642C8.09559 33.9823 7.9041 33.6194 7.8275 33.2255C7.75091 32.8317 7.78921 32.4263 7.93857 32.0557C8.08793 31.685 8.34452 31.3684 8.67006 31.1445C8.99559 30.9205 9.37857 30.8047 9.77304 30.8047C10.3015 30.8047 10.8032 31.017 11.1786 31.3993C11.5539 31.7815 11.7607 32.295 11.7607 32.8317Z" fill="#1AB578"/>
<path d="M19.7172 32.8317C19.721 33.2333 19.6023 33.631 19.384 33.9669C19.1657 34.3028 18.8555 34.5653 18.4878 34.7198C18.124 34.8742 17.7219 34.9167 17.3351 34.8395C16.9483 34.7622 16.5921 34.5653 16.3125 34.2835C16.0329 33.9978 15.8415 33.6348 15.7649 33.2371C15.6883 32.8394 15.7266 32.4302 15.8798 32.0595C16.0329 31.6889 16.2895 31.3684 16.6189 31.1445C16.9483 30.9205 17.3351 30.8047 17.7295 30.8047C18.2542 30.8085 18.7598 31.0209 19.1312 31.4031C19.5066 31.7815 19.7172 32.295 19.7172 32.8317Z" fill="#1AB578"/>
<path d="M27.6547 32.8317C27.6585 33.2333 27.5398 33.631 27.3215 33.9669C27.1032 34.3028 26.793 34.5653 26.4253 34.7198C26.0615 34.8742 25.6594 34.9167 25.2726 34.8395C24.8858 34.7622 24.5296 34.5653 24.25 34.2835C23.9704 33.9978 23.779 33.6348 23.7024 33.2371C23.6258 32.8394 23.6641 32.4302 23.8173 32.0595C23.9704 31.6889 24.227 31.3684 24.5564 31.1445C24.8858 30.9205 25.2726 30.8047 25.667 30.8047C26.1917 30.8085 26.6973 31.0209 27.0687 31.4031C27.4479 31.7815 27.6547 32.295 27.6547 32.8317Z" fill="#1AB578"/>
<path d="M18.8849 15.6484H16.6369C15.5607 15.6484 14.6875 16.5288 14.6875 17.6137V19.8801C14.6875 20.9651 15.5607 21.8454 16.6369 21.8454H18.8849C19.9611 21.8454 20.8343 20.9651 20.8343 19.8801V17.6137C20.8343 16.5288 19.9611 15.6484 18.8849 15.6484Z" fill="#00603D"/>
<path d="M11.5593 9.07746L10.9082 9.73384C10.0618 10.5871 10.0618 11.9694 10.9082 12.8188L11.5593 13.4752C12.4057 14.3285 13.7767 14.3285 14.6193 13.4752L15.2704 12.8188C16.1167 11.9655 16.1167 10.5833 15.2704 9.73384L14.6193 9.07746C13.7767 8.22418 12.4057 8.22418 11.5593 9.07746Z" fill="#1AB578"/>
<path d="M7.52421 16.6009L6.87697 17.2534C6.03059 18.1067 6.03059 19.4928 6.87697 20.3461L7.52421 20.9986C8.37059 21.8519 9.74549 21.8519 10.5919 20.9986L11.2391 20.3461C12.0855 19.4928 12.0855 18.1067 11.2391 17.2534L10.5919 16.6009C9.74549 15.7476 8.37442 15.7476 7.52421 16.6009Z" fill="#1AB578"/>
<path d="M24.7273 16.6009L24.0801 17.2534C23.2337 18.1067 23.2337 19.4928 24.0801 20.3461L24.7273 20.9986C25.5737 21.8519 26.9486 21.8519 27.795 20.9986L28.4422 20.3461C29.2886 19.4928 29.2886 18.1067 28.4422 17.2534L27.795 16.6009C26.9448 15.7476 25.5737 15.7476 24.7273 16.6009Z" fill="#1AB578"/>
<path d="M20.2692 8.98224L19.4305 9.8278C18.6377 10.627 18.6377 11.9243 19.4305 12.7274L20.2692 13.573C21.062 14.3722 22.3488 14.3722 23.1454 13.573L23.9841 12.7274C24.7769 11.9282 24.7769 10.6309 23.9841 9.8278L23.1454 8.98224C22.3488 8.183 21.062 8.183 20.2692 8.98224Z" fill="#1AB578"/>
<path d="M11.5593 23.8978L10.9082 24.5542C10.0618 25.4074 10.0618 26.7897 10.9082 27.643L11.5593 28.2993C12.4057 29.1526 13.7767 29.1526 14.6231 28.2993L15.2742 27.643C16.1206 26.7897 16.1206 25.4074 15.2742 24.5542L14.6231 23.8978C13.7767 23.0445 12.4057 23.0445 11.5593 23.8978Z" fill="#1AB578"/>
<path d="M20.2614 23.8025L19.4227 24.6481C18.6299 25.4473 18.6299 26.7446 19.4227 27.5477L20.2614 28.3933C21.0542 29.1925 22.341 29.1925 23.1376 28.3933L23.9763 27.5477C24.7691 26.7485 24.7691 25.4512 23.9763 24.6481L23.1376 23.8025C22.3448 23.0033 21.058 23.0033 20.2614 23.8025Z" fill="#1AB578"/>
</g>
<defs>
<clipPath id="clip0_5242_82366">
<rect width="36" height="36" fill="white"/>
</clipPath>
</defs>
</svg>
