<svg width="36" height="36" viewBox="0 0 36 36" fill="none" xmlns="http://www.w3.org/2000/svg">
<path d="M32 12.3699V6.01427L18.6955 3.04442C18.6849 3.04173 18.673 3.03904 18.6624 3.03635L18.5007 3L18.3389 3.03635C18.3283 3.03904 18.3164 3.04173 18.3058 3.04442L5 6.01427V18.7081L14.4706 20.8231L5 22.9367V23.6274C5 23.6274 5 23.63 5 23.6314V29.9871L18.2992 32.9556C18.3111 32.9583 18.323 32.961 18.3363 32.9636L18.5007 33L32 29.9857V17.2919L22.5294 15.1769L32 13.0619V12.3713C32 12.3713 32 12.3686 32 12.3673V12.3699ZM30.2766 11.2727L19.3624 8.83602V4.98438L30.2766 7.42111V11.2727ZM18.5007 25.566L9.87583 23.6408L18.5007 21.7157L27.1255 23.6408L18.5007 25.566ZM18.5007 14.287L9.87583 12.3619L18.5007 10.4367L27.1255 12.3619L18.5007 14.287ZM6.7247 7.42245L17.639 4.98573V8.83737L6.7247 11.2741V7.42245ZM6.7247 13.4496L17.6363 15.885V19.7367L6.7247 17.3013V13.4496ZM6.7247 24.7286L17.6363 27.164V31.0156L6.7247 28.5802V24.7286ZM30.2779 28.5802L19.3597 31.0183V27.1667L30.2779 24.7286V28.5802ZM30.2779 22.553L19.3597 20.115V16.2633L30.2779 18.7014V22.553Z" fill="url(#paint0_linear_5242_82347)"/>
<path d="M32 12.3699V6.01427L18.6955 3.04442C18.6849 3.04173 18.673 3.03904 18.6624 3.03635L18.5007 3L18.3389 3.03635C18.3283 3.03904 18.3164 3.04173 18.3058 3.04442L5 6.01427V18.7081L14.4706 20.8231L5 22.9367V23.6274C5 23.6274 5 23.63 5 23.6314V29.9871L18.2992 32.9556C18.3111 32.9583 18.323 32.961 18.3363 32.9636L18.5007 33L32 29.9857V17.2919L22.5294 15.1769L32 13.0619V12.3713C32 12.3713 32 12.3686 32 12.3673V12.3699ZM30.2766 11.2727L19.3624 8.83602V4.98438L30.2766 7.42111V11.2727ZM18.5007 25.566L9.87583 23.6408L18.5007 21.7157L27.1255 23.6408L18.5007 25.566ZM18.5007 14.287L9.87583 12.3619L18.5007 10.4367L27.1255 12.3619L18.5007 14.287ZM6.7247 7.42245L17.639 4.98573V8.83737L6.7247 11.2741V7.42245ZM6.7247 13.4496L17.6363 15.885V19.7367L6.7247 17.3013V13.4496ZM6.7247 24.7286L17.6363 27.164V31.0156L6.7247 28.5802V24.7286ZM30.2779 28.5802L19.3597 31.0183V27.1667L30.2779 24.7286V28.5802ZM30.2779 22.553L19.3597 20.115V16.2633L30.2779 18.7014V22.553Z" fill="url(#paint1_linear_5242_82347)"/>
<defs>
<linearGradient id="paint0_linear_5242_82347" x1="5" y1="7.73611" x2="32" y2="7.73611" gradientUnits="userSpaceOnUse">
<stop stop-color="#360F7C"/>
<stop offset="0.28125" stop-color="#683FFA"/>
<stop offset="1" stop-color="#58DDFA"/>
</linearGradient>
<linearGradient id="paint1_linear_5242_82347" x1="5" y1="7.73611" x2="32" y2="7.73611" gradientUnits="userSpaceOnUse">
<stop stop-color="#7852FF"/>
<stop offset="1" stop-color="#58DDFA"/>
</linearGradient>
</defs>
</svg>
