<svg width="36" height="36" viewBox="0 0 36 36" fill="none" xmlns="http://www.w3.org/2000/svg">
<g clip-path="url(#clip0_5242_82356)">
<path d="M31.6548 21.8421C31.6548 21.8803 31.6548 21.9185 31.6548 21.9567C31.6405 23.1511 31.3971 24.3096 30.9318 25.406C30.4689 26.4952 29.8103 27.4721 28.9703 28.3129C28.1304 29.1514 27.1544 29.813 26.0663 30.2764C24.9352 30.7565 23.7373 31.0026 22.506 31.0026H13.4956C12.2643 31.0026 11.0665 30.7589 9.93538 30.2764C8.84726 29.813 7.87129 29.1538 7.03373 28.3129C6.19377 27.4721 5.53518 26.4952 5.07225 25.406C4.61886 24.3382 4.37786 23.2108 4.35161 22.0499C4.34922 21.9353 4.44228 21.8421 4.55682 21.8421H8.50126C8.61341 21.8421 8.70647 21.9329 8.70647 22.0475C8.70647 24.5843 10.761 26.6409 13.2952 26.6409H22.7136C25.2478 26.6409 27.3023 24.5843 27.3023 22.0499V16.1284C27.3023 15.9851 27.4455 15.8848 27.5791 15.935C28.4239 16.255 29.1827 16.7495 29.8103 17.3777C30.9509 18.5195 31.6572 20.0984 31.6572 21.8421" fill="#006666"/>
<path d="M27.3047 12.6221C27.3047 10.0854 25.2501 8.02877 22.716 8.02877H13.2951C10.761 8.02877 8.70643 10.0854 8.70643 12.6221V18.5436C8.70643 18.6869 8.56325 18.7873 8.42962 18.7371C7.5849 18.417 6.82608 17.9226 6.1985 17.2943C5.05789 16.1526 4.35156 14.5737 4.35156 12.83C4.35156 11.5974 4.59496 10.3983 5.07459 9.26609C5.53752 8.17926 6.19612 7.19991 7.03607 6.36149C7.87363 5.52069 8.85199 4.86142 9.93772 4.39802C11.0688 3.91791 12.2667 3.67188 13.498 3.67188H22.5084C23.7397 3.67188 24.9375 3.91552 26.0686 4.39802C27.1567 4.85903 28.1327 5.52069 28.9727 6.36149C29.8102 7.19991 30.4712 8.17926 30.9341 9.26609C31.3875 10.3338 31.6309 11.4637 31.6572 12.6221C31.6595 12.7368 31.5665 12.83 31.4519 12.83H27.5075C27.3954 12.83 27.3023 12.7368 27.3023 12.6245" fill="#006666"/>
<path d="M35.7933 17.167H31.8537C31.7415 17.167 31.6484 17.0762 31.6484 16.9616V13.0179C31.6484 12.9057 31.7391 12.8125 31.8537 12.8125H35.7933C35.9055 12.8125 35.9985 12.9033 35.9985 13.0179V16.9616C35.9985 17.0739 35.9079 17.167 35.7933 17.167Z" fill="#00C096"/>
<path d="M4.14488 21.8389H0.205216C0.0930629 21.8389 0 21.7481 0 21.6335V17.6898C0 17.5775 0.0906766 17.4844 0.205216 17.4844H4.14488C4.25703 17.4844 4.35009 17.5751 4.35009 17.6898V21.6335C4.35009 21.7457 4.25942 21.8389 4.14488 21.8389Z" fill="#00C096"/>
<path d="M22.277 10.2031H13.7344C12.1594 10.2031 10.8828 11.4811 10.8828 13.0576V21.6089C10.8828 23.1854 12.1594 24.4634 13.7344 24.4634H15.6386C15.7459 24.4562 15.8342 24.3678 15.8342 24.2579V18.1358C15.8342 18.0236 15.7436 17.9304 15.629 17.9304H13.6699C13.3311 17.9304 13.0591 17.6557 13.0591 17.3189V14.1898C13.0591 13.8506 13.3335 13.5783 13.6699 13.5783H22.3439C22.6803 13.5783 22.9547 13.853 22.9547 14.1898V17.3189C22.9547 17.6581 22.6803 17.9304 22.3439 17.9304H20.3872C20.275 17.9304 20.1819 18.0212 20.1819 18.1358V24.2579C20.1819 24.3702 20.2726 24.4634 20.3872 24.4634H22.2794C23.8543 24.4634 25.131 23.1854 25.131 21.6089V13.0576C25.131 11.4811 23.8543 10.2031 22.2794 10.2031H22.277Z" fill="#00C096"/>
</g>
<defs>
<clipPath id="clip0_5242_82356">
<rect width="36" height="36" fill="white"/>
</clipPath>
</defs>
</svg>
