<svg width="14" height="14" viewBox="0 0 14 14" fill="none" xmlns="http://www.w3.org/2000/svg">
<path d="M11.0207 10.078L13.8758 12.9332L12.933 13.876L10.0779 11.0208C9.05131 11.8422 7.74937 12.3335 6.33337 12.3335C3.02137 12.3335 0.333374 9.6455 0.333374 6.3335C0.333374 3.0215 3.02137 0.333496 6.33337 0.333496C9.64537 0.333496 12.3334 3.0215 12.3334 6.3335C12.3334 7.7495 11.842 9.05143 11.0207 10.078ZM9.68317 9.58336C10.4984 8.74323 11 7.59723 11 6.3335C11 3.75516 8.91171 1.66683 6.33337 1.66683C3.75504 1.66683 1.66671 3.75516 1.66671 6.3335C1.66671 8.91183 3.75504 11.0002 6.33337 11.0002C7.59711 11.0002 8.74311 10.4985 9.58324 9.6833L9.68317 9.58336ZM7.11864 3.78432C6.65564 3.99338 6.33337 4.45914 6.33337 5.00016C6.33337 5.73656 6.93031 6.3335 7.66671 6.3335C8.20771 6.3335 8.67351 6.01123 8.88257 5.54824C8.95891 5.7965 9.00004 6.06016 9.00004 6.3335C9.00004 7.80623 7.80611 9.00016 6.33337 9.00016C4.86061 9.00016 3.66671 7.80623 3.66671 6.3335C3.66671 4.86074 4.86061 3.66683 6.33337 3.66683C6.60671 3.66683 6.87037 3.70794 7.11864 3.78432Z" fill="white" fill-opacity="0.5"/>
</svg>
