<svg width="37" height="36" viewBox="0 0 37 36" fill="none" xmlns="http://www.w3.org/2000/svg">
<rect x="0.289062" width="36" height="36" rx="18" fill="black"/>
<g clip-path="url(#clip0_102_19)">
<path d="M24.0638 21.9959H12.4623V23.4061H24.0638V21.9959ZM23.5046 15.0654L23.8288 17.9277L25.2302 17.769L24.9059 14.9066L23.5046 15.0654ZM12.6972 17.9277L13.0214 15.0654L11.6201 14.9066L11.2959 17.769L12.6972 17.9277ZM11.7073 20.2243C12.2569 19.5773 12.6011 18.7763 12.6972 17.9277L11.2959 17.769C11.2309 18.3429 10.9985 18.8804 10.6325 19.3111L11.7073 20.2243ZM23.8288 17.9277C23.925 18.7763 24.2691 19.5773 24.8187 20.2243L25.8935 19.3111C25.5275 18.8804 25.2951 18.3429 25.2302 17.769L23.8288 17.9277ZM12.4623 21.9959C11.6286 21.9959 11.0982 20.9411 11.7073 20.2243L10.6325 19.3111C9.29841 20.8815 10.3452 23.4061 12.4623 23.4061V21.9959ZM24.0638 23.4061C26.1809 23.4061 27.2276 20.8815 25.8935 19.3111L24.8187 20.2243C25.4278 20.9411 24.8975 21.9959 24.0638 21.9959V23.4061ZM24.9059 14.9066C24.5155 11.461 21.6739 8.8335 18.263 8.8335V10.2438C20.9239 10.2438 23.1913 12.2999 23.5046 15.0654L24.9059 14.9066ZM13.0214 15.0654C13.3347 12.2999 15.6021 10.2438 18.263 10.2438V8.8335C14.8522 8.8335 12.0105 11.461 11.6201 14.9066L13.0214 15.0654Z" fill="white"/>
<path d="M21.7438 24.8288C21.8805 24.4641 21.6957 24.0577 21.331 23.921C20.9663 23.7843 20.5599 23.9692 20.4232 24.3339L21.7438 24.8288ZM16.1028 24.3339C15.9661 23.9692 15.5597 23.7843 15.195 23.921C14.8304 24.0577 14.6456 24.4641 14.7822 24.8288L16.1028 24.3339ZM20.4232 24.3339C20.1199 25.1434 19.2827 25.7565 18.263 25.7565V27.1668C19.8477 27.1668 21.2261 26.2102 21.7438 24.8288L20.4232 24.3339ZM18.263 25.7565C17.2433 25.7565 16.4062 25.1434 16.1028 24.3339L14.7822 24.8288C15.2999 26.2102 16.6784 27.1668 18.263 27.1668V25.7565Z" fill="white"/>
<circle cx="22.8724" cy="10.6667" r="3.16667" fill="#337AFF" stroke="white"/>
</g>
<defs>
<clipPath id="clip0_102_19">
<rect width="22" height="22" fill="white" transform="translate(7.28906 7)"/>
</clipPath>
</defs>
</svg>
