<svg width="40" height="40" viewBox="0 0 282 282" fill="none" xmlns="http://www.w3.org/2000/svg">
    <circle cx="141" cy="141" r="141" fill="black" />
    <path
        d="M93 71H141.73C179.009 71 209.23 101.221 209.23 138.5V138.5C209.23 175.779 179.009 206 141.73 206H93"
        stroke="white" stroke-width="8" />
    <line x1="96.5" y1="71" x2="96.5" y2="82.5508" stroke="white" stroke-width="7" />
    <line x1="96.5" y1="89.0483" x2="96.5" y2="190.118" stroke="white" stroke-width="7" />
    <line x1="96.5" y1="194.449" x2="96.5" y2="206" stroke="white" stroke-width="7" />
    <path fill-rule="evenodd" clip-rule="evenodd"
        d="M93.1726 205.648C93.1149 205.614 93.0574 205.581 93 205.547V195.129C93.6767 195.978 94.4589 196.766 95.3443 197.471C101.687 202.527 110.928 201.484 115.984 195.141C121.04 188.798 119.997 179.557 113.654 174.501C107.31 169.445 98.0696 170.488 93.0137 176.831C93.0091 176.837 93.0046 176.843 93 176.849V166.422C100.863 161.802 111.083 162.221 118.64 168.245C128.438 176.055 130.05 190.329 122.24 200.127C120.411 202.421 118.228 204.267 115.831 205.648H93.1726Z"
        fill="white" />
    <path fill-rule="evenodd" clip-rule="evenodd"
        d="M93.0461 205.648C93.0307 205.638 93.0154 205.628 93 205.618V195.435C93.6618 196.074 94.3599 196.687 95.0937 197.272C107.647 207.278 125.935 205.213 135.941 192.66C145.947 180.107 143.882 161.819 131.328 151.813C119.766 142.597 103.34 143.621 93 153.648V143.459C106.016 134.993 123.506 135.348 136.315 145.557C152.323 158.317 154.956 181.638 142.197 197.646C139.638 200.857 136.654 203.529 133.39 205.648H93.0461Z"
        fill="white" />
    <path fill-rule="evenodd" clip-rule="evenodd"
        d="M154.203 204.497C157.691 201.88 160.907 198.781 163.752 195.213C181.792 172.58 178.069 139.609 155.436 121.569C136.932 106.82 111.516 106.618 93 119.406V129.595C108.842 115.247 133.193 114.07 150.45 127.825C169.627 143.111 172.782 171.049 157.496 190.226C151.155 198.181 142.638 203.379 133.471 205.647H141.73C145.992 205.647 150.161 205.253 154.203 204.497ZM112.038 205.647C106.035 204.156 100.249 201.38 95.095 197.272C94.374 196.698 93.6756 196.105 93 195.496V205.647H112.038Z"
        fill="white" />
    <path fill-rule="evenodd" clip-rule="evenodd"
        d="M188.938 186.394C206.345 158.058 200.278 120.535 173.611 99.2794C149.679 80.2042 116.677 80.2227 93 97.2576V107.493C113.981 88.8639 145.935 87.4496 168.624 105.535C194.012 125.771 198.188 162.756 177.952 188.143C172.925 194.451 166.864 199.449 160.204 203.088C171.175 199.973 181.009 194.153 188.938 186.394ZM109.056 205.648C104.246 203.608 99.6298 200.887 95.3443 197.471C94.5416 196.832 93.7602 196.175 93 195.503V205.648H109.056Z"
        fill="white" />
    <circle cx="144.257" cy="186.508" r="6.49733" fill="white" />
    <circle cx="163.748" cy="133.086" r="6.49733" fill="white" />
    <circle cx="127.653" cy="89.0481" r="6.49733" fill="white" />
</svg>